<svg width="9" height="9" viewBox="0 0 9 9" fill="none" xmlns="http://www.w3.org/2000/svg">
<path fill-rule="evenodd" clip-rule="evenodd" d="M0.853592 0.146444C0.658279 -0.0488148 0.341751 -0.0488148 0.146439 0.146444C-0.0488129 0.341703 -0.0488129 0.658285 0.146439 0.853552L3.34291 4.05L0.15358 7.23933C-0.0417328 7.43459 -0.0417328 7.75118 0.15358 7.94644C0.348831 8.1417 0.665421 8.1417 0.860672 7.94644L4.05 4.75709L7.21754 7.92462C7.4128 8.11988 7.72939 8.11988 7.92464 7.92462C8.11989 7.72935 8.11989 7.41277 7.92464 7.21751L4.7571 4.04999L7.93172 0.875372C8.12697 0.680113 8.12697 0.363523 7.93172 0.168264C7.73647 -0.0269947 7.41988 -0.0269947 7.22462 0.168264L4.05 3.34288L0.853592 0.146444Z" fill="currentColor"/>
</svg>
