<svg width="50" height="67" viewBox="0 0 50 67" fill="none" xmlns="http://www.w3.org/2000/svg">
<path d="M49.9974 16.973C49.9858 16.5808 49.8303 16.1982 49.5428 15.9094L34.1665 0.459448L34.1647 0.457878C33.8822 0.174959 33.4927 0 33.0626 0H3.2869C1.4744 0 0 1.48133 0 3.3025V63.6975C0 65.5185 1.47427 67 3.28677 67H46.7132C48.5256 67 50 65.5187 50 63.6975V17.0186C50.0002 17.0031 49.9984 16.9882 49.9974 16.973ZM34.6239 4.35622L45.6697 15.4501H35.2828C34.9194 15.4501 34.6239 15.1532 34.6239 14.7881V4.35622ZM47.8777 63.6978C47.8776 63.7886 46.8038 64.8626 46.7133 64.8626H3.2869C3.19638 64.8626 2.12267 63.7886 2.12267 63.6976V3.3025C2.12267 3.21156 3.19638 2.13749 3.2869 2.13749H32.5014V14.7881C32.5014 16.883 33.1977 17.5876 35.2828 17.5876H47.8778L47.8777 63.6978Z" fill="currentColor" />
<path d="M1.12109 12.9404C0.674479 12.9404 0.300781 12.8835 0 12.7695V11.3955C0.382812 11.4912 0.715495 11.5391 0.998047 11.5391C1.89128 11.5391 2.33789 10.974 2.33789 9.84375V0.157227H3.97852V9.78906C3.97852 10.8099 3.7347 11.5892 3.24707 12.127C2.764 12.6693 2.05534 12.9404 1.12109 12.9404Z" transform="translate(6.93359 34.8486)" fill="currentColor" />
<path d="M12.332 7.4375C12.332 8.32617 12.0107 9.02344 11.3682 9.5293C10.7256 10.0352 9.83919 10.2881 8.70898 10.2881C7.57878 10.2881 6.65365 10.1126 5.93359 9.76172V8.2168C6.38932 8.43099 6.8724 8.59961 7.38281 8.72266C7.89779 8.8457 8.3763 8.90723 8.81836 8.90723C9.46549 8.90723 9.94173 8.78418 10.2471 8.53809C10.557 8.29199 10.7119 7.96159 10.7119 7.54688C10.7119 7.17318 10.5706 6.85645 10.2881 6.59668C10.0055 6.33691 9.4222 6.0293 8.53809 5.67383C7.62663 5.30469 6.98405 4.88314 6.61035 4.40918C6.23665 3.93522 6.0498 3.36556 6.0498 2.7002C6.0498 1.86621 6.34603 1.20996 6.93848 0.731445C7.53092 0.25293 8.32617 0.0136719 9.32422 0.0136719C10.2812 0.0136719 11.2337 0.223307 12.1816 0.642578L11.6621 1.97559C10.7734 1.60189 9.98047 1.41504 9.2832 1.41504C8.75456 1.41504 8.35352 1.53125 8.08008 1.76367C7.80664 1.99154 7.66992 2.2946 7.66992 2.67285C7.66992 2.93262 7.72461 3.15592 7.83398 3.34277C7.94336 3.52507 8.12337 3.69824 8.37402 3.8623C8.62467 4.02637 9.07585 4.24284 9.72754 4.51172C10.4613 4.81706 10.999 5.10189 11.3408 5.36621C11.6826 5.63053 11.9333 5.92904 12.0928 6.26172C12.2523 6.5944 12.332 6.98633 12.332 7.4375Z" transform="translate(6.93359 34.8486)" fill="currentColor" />
<path d="M23.1396 5.14062C23.1396 6.76758 22.7318 8.03223 21.916 8.93457C21.1048 9.83691 19.9541 10.2881 18.4639 10.2881C16.9554 10.2881 15.7956 9.84147 14.9844 8.94824C14.1777 8.05046 13.7744 6.77669 13.7744 5.12695C13.7744 3.47721 14.18 2.21029 14.9912 1.32617C15.807 0.442057 16.9691 0 18.4775 0C19.9632 0 21.1117 0.448893 21.9229 1.34668C22.734 2.24447 23.1396 3.50911 23.1396 5.14062ZM15.5107 5.14062C15.5107 6.37109 15.7591 7.30534 16.2559 7.94336C16.7526 8.57682 17.4886 8.89355 18.4639 8.89355C19.4346 8.89355 20.166 8.5791 20.6582 7.9502C21.1549 7.32129 21.4033 6.38477 21.4033 5.14062C21.4033 3.91471 21.1572 2.98503 20.665 2.35156C20.1774 1.7181 19.4482 1.40137 18.4775 1.40137C17.4977 1.40137 16.7572 1.7181 16.2559 2.35156C15.7591 2.98503 15.5107 3.91471 15.5107 5.14062Z" transform="translate(6.93359 34.8486)" fill="currentColor" />
<path d="M33.6123 10.1514H31.6094L26.6943 2.1875H26.6396L26.6738 2.63184C26.7376 3.47949 26.7695 4.25423 26.7695 4.95605V10.1514H25.2861V0.157227H27.2686L32.1699 8.08008H32.2109C32.2018 7.97526 32.1836 7.59473 32.1562 6.93848C32.1289 6.27767 32.1152 5.7627 32.1152 5.39355V0.157227H33.6123V10.1514Z" transform="translate(6.93359 34.8486)" fill="currentColor" />
</svg>
