<?xml version="1.0" encoding="UTF-8"?>
<svg width="103px" height="27px" viewBox="0 0 103 27" version="1.1" xmlns="http://www.w3.org/2000/svg" xmlns:xlink="http://www.w3.org/1999/xlink">
    <!-- Generator: Sketch 41.2 (35397) - http://www.bohemiancoding.com/sketch -->
    <title>logo</title>
    <desc>Created with Sketch.</desc>
    <defs></defs>
    <g id="Illustrations" stroke="none" stroke-width="1" fill="none" fill-rule="evenodd">
        <g id="logo" fill="#57BD47">
            <g id="logo-tactill-pay">
                <g id="Welcome">
                    <g id="Desktop-HD">
                        <g id="Hero">
                            <g id="logo-tactill-pay">
                                <g id="/Matériel-tactill-box">
                                    <g id="logo-tactill-pay">
                                        <g id="tactill-logo-2">
                                            <g id="Group">
                                                <g id="Oval" transform="translate(69.735372, 0.066671)">
                                                    <ellipse cx="3.14020079" cy="3.11550152" rx="3.14020079" ry="3.11550152"></ellipse>
                                                </g>
                                                <g id="Shape" transform="translate(27.448110, 16.007846)">
                                                    <path d="M5.65236143,0.560622754 C5.65236143,0.251374584 5.39913563,0 5.08712528,0 L0.565236143,0 C0.253225792,0 0,0.251374584 0,0.560622754 L0,10.0421716 C0,10.3514199 0.253225792,10.6027944 0.565236143,10.6027944 L5.08712528,10.6027944 C5.39913563,10.6027944 5.65236143,10.3514199 5.65236143,10.0421716 L5.65236143,0.560622754 L5.65236143,0.560622754 Z"></path>
                                                </g>
                                                <g id="Shape" transform="translate(0.119522, 3.019955)">
                                                    <path d="M12.8423344,18.8970256 C12.5950107,18.4264764 12.1789248,18.299457 11.7395614,18.3802875 C11.367121,18.4207028 10.8812026,18.6862889 10.2876255,18.6862889 C9.31578865,18.6660812 8.72803106,18.181098 8.72803106,16.922451 L8.72803106,9.05590736 L11.3089271,9.05590736 C11.8181231,9.05590736 12.2254799,8.83362336 12.6270173,8.21296029 L13.8461779,6.33942381 C14.1837021,5.82268571 14.3291866,5.51379758 14.3291866,5.2395511 C14.3291866,4.81519076 13.9742043,4.52362346 13.3428013,4.52362346 L8.72803106,4.52362346 L8.72803106,1.24421296 C8.72803106,0.612002664 8.33522273,0.222283986 7.69800034,0.222283986 L4.0085119,0.222283986 C3.37128952,0.222283986 2.9784812,0.612002664 2.9784812,1.24421296 L2.9784812,4.52362346 L1.21229864,4.52362346 C0.575076266,4.52362346 0.182267952,4.91045533 0.182267952,5.54266563 L0.182267952,8.03397836 C0.182267952,8.66618864 0.575076266,9.05590736 1.21229864,9.05590736 L2.9784812,9.05590736 L2.9784812,18.0569654 C2.9784812,22.2197382 5.85325613,23.5880838 8.73094071,23.5880838 C10.7880924,23.5880838 12.3156803,23.1002137 13.4999246,22.4824374 C13.8578166,22.2976819 14.099321,21.9830202 14.099321,21.6481508 C14.099321,21.4460744 14.0585853,21.2757529 13.9101911,20.9841856 L12.8423344,18.8970256 L12.8423344,18.8970256 Z"></path>
                                                </g>
                                                <g id="Shape" transform="translate(14.667978, 6.621046)">
                                                    <path d="M15.4319596,2.12921723 C13.8490876,1.13904311 11.5387928,0.547248077 8.41378438,0.547248077 C6.41482653,0.547248077 3.8746661,1.02357091 2.69042178,1.28338336 C2.23650995,1.39308195 2.00664434,1.65866801 1.9891862,2.03395266 C1.97172805,2.18117971 1.9891862,2.32551996 2.10266415,2.74121989 L2.60022135,4.58011469 C2.73115745,5.09973959 3.03085565,5.3970805 3.49931593,5.3970805 C3.59242605,5.3970805 3.72336216,5.34223121 4.26456472,5.23253261 C4.81449637,5.11994722 6.42937498,4.69847369 8.37886807,4.69847369 C10.348729,4.69847369 11.3613016,5.1632493 11.9170526,5.59338324 C12.394242,5.9715547 12.6910305,6.36993379 12.7899599,6.79718094 L7.27027577,7.6776565 C2.40818173,8.45998064 0.708922062,11.1475961 0.708922062,13.8756269 C0.708922062,16.9269797 2.94065522,20.0043139 7.82602679,20.0043139 C10.5233105,20.0043139 12.6066495,19.1700272 14.0498562,18.1192302 L16.6656687,19.5828404 C17.3261685,19.9494646 17.5502148,19.9869931 17.7917191,19.9869931 C18.1467015,19.9869931 18.4085737,19.6925389 18.4085737,19.0632154 L18.4085737,8.14531886 C18.4085737,5.7406103 17.4454659,3.39652463 15.4319596,2.12921723 L15.4319596,2.12921723 L15.4319596,2.12921723 Z M6.1267671,13.6850977 C6.1267671,12.8710187 6.38572962,11.7365043 8.99281293,11.1360489 L12.8248763,10.2671206 L12.8248763,14.2653455 C11.4078567,15.2612932 10.2381608,15.7174084 8.97535478,15.7462765 C7.2848242,15.7866918 6.1267671,15.0188016 6.1267671,13.6850977 L6.1267671,13.6850977 L6.1267671,13.6850977 Z"></path>
                                                </g>
                                                <g id="Shape" transform="translate(34.497497, 6.621046)">
                                                    <path d="M10.7191934,0.547248077 C5.18787039,0.547248077 0.58764858,4.17884879 0.58764858,10.2671206 C0.58764858,16.4477701 5.18787039,19.9869931 10.7191934,19.9869931 C13.4513934,19.9869931 15.6743975,19.1296119 17.2194436,18.0095316 C17.5016836,17.8045684 17.6326197,17.5101144 17.6326197,17.2676227 C17.6326197,17.0251311 17.5395096,16.8201679 17.3503797,16.5805631 L15.4969063,14.2422511 C15.0837302,13.7197394 14.5628955,13.7024185 14.0711576,14.0372879 C13.3844705,14.5078371 12.2846073,14.9783864 10.7191934,14.9783864 C8.68822888,14.9783864 6.45940545,13.5725123 6.45940545,10.2671206 C6.45940545,6.94729479 8.68822888,5.55874159 10.7191934,5.55874159 C12.2846073,5.55874159 13.3844705,6.04372483 14.0536995,6.48251919 C14.5628955,6.79718094 15.0837302,6.79718094 15.4969063,6.27755604 L17.3503797,3.93924397 C17.5395096,3.69675235 17.6326197,3.47446836 17.6326197,3.23486355 C17.6326197,2.99237193 17.5016836,2.69503101 17.2194436,2.49006785 C15.6569394,1.36998751 13.4513934,0.547248077 10.7191934,0.547248077 L10.7191934,0.547248077 L10.7191934,0.547248077 Z"></path>
                                                </g>
                                                <g id="Shape" transform="translate(52.801775, 3.019955)">
                                                    <path d="M12.8792268,18.8970256 C12.6289934,18.4264764 12.2158173,18.299457 11.7735442,18.3802875 C11.4011037,18.4207028 10.9151853,18.6862889 10.324518,18.6862889 C9.34977143,18.6660812 8.76201377,18.181098 8.76201377,16.922451 L8.76201377,9.05590736 L11.3458196,9.05590736 C11.8521059,9.05590736 12.2623723,8.83362336 12.661,8.21296029 L13.8830703,6.33942381 C14.2176848,5.82268571 14.3631694,5.51379758 14.3631694,5.2395511 C14.3631694,4.81519076 14.0110968,4.52362346 13.376784,4.52362346 L8.76201377,4.52362346 L8.76201377,1.24421296 C8.76201377,0.612002664 8.37211517,0.222283986 7.73489278,0.222283986 L4.04540433,0.222283986 C3.40818196,0.222283986 3.01537365,0.612002664 3.01537365,1.24421296 L3.01537365,4.52362346 L1.24919108,4.52362346 C0.609059012,4.52362346 0.21916039,4.91045533 0.21916039,5.54266563 L0.21916039,8.03397836 C0.21916039,8.66618864 0.609059012,9.05590736 1.24919108,9.05590736 L3.01537365,9.05590736 L3.01537365,18.0569654 C3.01537365,22.2197382 5.88723887,23.5880838 8.76783315,23.5880838 C10.8220751,23.5880838 12.349663,23.1002137 13.5368171,22.4824374 C13.8947091,22.2976819 14.1333038,21.9830202 14.1333038,21.6481508 C14.1333038,21.4460744 14.0925681,21.2757529 13.9470835,20.9841856 L12.8792268,18.8970256 L12.8792268,18.8970256 Z"></path>
                                                </g>
                                                <g id="Shape" transform="translate(68.067991, 7.335331)">
                                                    <path d="M6.91820311,0.208247015 L4.99489722,0.208247015 L1.24430525,0.208247015 C0.60999256,0.208247015 0.319023439,0.499814321 0.319023439,0.924174657 C0.319023439,1.25327043 0.554708427,1.59968704 0.816580635,2.0413682 L2.07065755,4.13430184 L2.07065755,17.8783805 C2.07065755,18.5105908 2.46055617,18.9003095 3.10068824,18.9003095 L6.91820311,18.9003095 C7.55542546,18.9003095 7.94823378,18.5105908 7.94823378,17.8783805 L7.94823378,1.23017599 C7.94823378,0.595078887 7.55542546,0.208247015 6.91820311,0.208247015 L6.91820311,0.208247015 L6.91820311,0.208247015 Z"></path>
                                                </g>
                                                <g id="Shape" transform="translate(8.638441, 9.549373) rotate(270.000000) translate(-8.638441, -9.549373) translate(6.138441, 3.549373)">
                                                    <path d="M4.52188914,0.897290779 C4.52188914,0.402029678 4.11672787,-2.0250468e-13 3.61751131,-2.0250468e-13 L0.904377828,-2.0250468e-13 C0.405161267,-2.0250468e-13 5.59552404e-14,0.402029678 5.59552404e-14,0.897290779 L5.59552404e-14,10.94162 C5.59552404e-14,11.4368811 0.405161267,11.8389108 0.904377828,11.8389108 L3.61751131,11.8389108 C4.11672787,11.8389108 4.52188914,11.4368811 4.52188914,10.94162 L4.52188914,0.897290779 L4.52188914,0.897290779 Z"></path>
                                                </g>
                                                <g id="Shape" transform="translate(61.309217, 9.549373) rotate(270.000000) translate(-61.309217, -9.549373) translate(58.809217, 3.549373)">
                                                    <path d="M4.52188914,0.897290779 C4.52188914,0.402029678 4.11672787,-2.03392858e-13 3.61751131,-2.03392858e-13 L0.904377828,-2.03392858e-13 C0.405161267,-2.03392858e-13 5.95079541e-14,0.402029678 5.95079541e-14,0.897290779 L5.95079541e-14,10.94162 C5.95079541e-14,11.4368811 0.405161267,11.8389108 0.904377828,11.8389108 L3.61751131,11.8389108 C4.11672787,11.8389108 4.52188914,11.4368811 4.52188914,10.94162 L4.52188914,0.897290779 L4.52188914,0.897290779 Z"></path>
                                                </g>
                                                <g id="Shape" transform="translate(78.997070, 3.013724)">
                                                    <path d="M5.4313509,0.161661081 L1.59637788,0.161661081 C0.956245813,0.161661081 0.566347192,0.548492953 0.566347192,1.18070325 L0.566347192,18.0569654 C0.566347192,22.2197382 3.49931593,23.5880838 6.26352258,23.5880838 C8.15773155,23.5880838 9.72314547,23.0597984 10.9306673,22.444909 C11.2856496,22.2572666 11.5096959,21.9426049 11.5096959,21.6106224 C11.5096959,21.4056592 11.451502,21.2180169 11.3380241,20.9957329 L10.2963546,18.9172333 C10.0868569,18.5448354 9.78424897,18.3543063 9.45254414,18.3543063 C9.05973581,18.3543063 8.6756566,18.6660812 7.92204659,18.6660812 C7.15097841,18.6660812 6.46138159,18.2417209 6.46138159,16.922451 L6.46138159,1.18070325 C6.46138159,0.548492953 6.07148297,0.161661081 5.4313509,0.161661081 L5.4313509,0.161661081 L5.4313509,0.161661081 Z"></path>
                                                </g>
                                                <g id="Shape" transform="translate(91.353595, 3.013724)">
                                                    <path d="M5.24606421,0.161661081 L1.41109119,0.161661081 C0.773868815,0.161661081 0.381060503,0.548492953 0.381060503,1.18070325 L0.381060503,18.0569654 C0.381060503,22.2197382 3.31402924,23.5880838 6.07823589,23.5880838 C7.97244491,23.5880838 9.54076842,23.0597984 10.7453806,22.444909 C11.100363,22.2572666 11.3244091,21.9426049 11.3244091,21.6106224 C11.3244091,21.4056592 11.2662153,21.2180169 11.1527373,20.9957329 L10.1110679,18.9172333 C9.90157017,18.5448354 9.59896226,18.3543063 9.26725743,18.3543063 C8.87444918,18.3543063 8.49036989,18.6660812 7.73675989,18.6660812 C6.96569172,18.6660812 6.2760949,18.2417209 6.2760949,16.922451 L6.2760949,1.18070325 C6.2760949,0.548492953 5.88619628,0.161661081 5.24606421,0.161661081 L5.24606421,0.161661081 L5.24606421,0.161661081 Z"></path>
                                                </g>
                                            </g>
                                        </g>
                                    </g>
                                </g>
                            </g>
                        </g>
                    </g>
                </g>
            </g>
        </g>
    </g>
</svg>